<svg width="583" height="380" viewBox="0 0 583 380" fill="none" xmlns="http://www.w3.org/2000/svg">
<path d="M555.84 107.397C558.009 109.651 558.944 112.882 558.817 115.943C558.689 119.047 557.541 122.023 556.053 124.744C553.162 130.016 547.762 134.268 542.575 137.287C539.599 131.334 541.427 123.851 542.618 120.11C544.446 114.158 551.376 104.591 555.84 107.397Z" fill="#EBEBEB"/>
<path d="M544.233 148.596C544.743 145.195 547.465 142.304 550.738 141.156C554.012 140.008 557.711 140.476 560.815 142.049C562.218 142.771 563.621 143.834 564.004 145.407C564.301 146.853 563.578 148.426 562.43 149.362C561.282 150.339 559.794 150.807 558.306 151.062C553.247 151.913 548.23 151.828 544.233 148.596Z" fill="#EBEBEB"/>
<path d="M531.351 163.052C531.308 163.052 531.521 162.669 531.946 161.989C532.456 161.266 533.051 160.288 533.774 159.183C535.347 156.802 537.516 153.443 540.96 150.679C544.361 147.958 548.187 146.47 551.036 146.13C552.439 145.918 553.63 145.96 554.395 146.045C554.82 146.045 555.118 146.13 555.33 146.173C555.529 146.201 555.628 146.215 555.628 146.215C555.628 146.343 553.885 145.96 551.078 146.428C548.315 146.853 544.573 148.341 541.215 151.02C537.856 153.698 535.645 157.014 534.029 159.353C533.222 160.501 532.584 161.436 532.116 162.074C531.648 162.712 531.351 163.052 531.351 163.052Z" fill="#E0E0E0"/>
<path d="M551.206 115.178C551.234 115.178 551.192 115.348 551.078 115.688C550.937 116.057 550.767 116.539 550.568 117.134C550.143 118.409 549.463 120.238 548.612 122.448C546.954 126.955 544.573 133.078 541.767 139.795C538.961 146.555 536.283 152.593 534.284 156.929C533.306 159.098 532.456 160.841 531.903 162.031C531.62 162.598 531.393 163.066 531.223 163.435C531.053 163.746 530.968 163.902 530.968 163.902C530.94 163.874 530.996 163.704 531.138 163.392C531.28 163.024 531.478 162.542 531.733 161.946C532.286 160.713 533.051 158.928 534.029 156.802C535.943 152.423 538.579 146.385 541.342 139.668C544.148 132.908 546.614 126.785 548.357 122.363C549.208 120.153 549.888 118.367 550.398 117.091C550.653 116.496 550.852 116.028 550.993 115.688C551.135 115.348 551.206 115.178 551.206 115.178Z" fill="#E0E0E0"/>
<path d="M534.539 149.064C527.312 146.215 522.295 138.647 522.422 130.867C522.465 129.038 523.017 126.828 524.761 126.19C526.546 125.552 528.375 126.87 529.608 128.273C534.497 133.673 536.495 141.581 534.837 148.681" fill="#EBEBEB"/>
<path d="M528.205 133.8C528.247 133.8 528.502 134.098 529.012 134.651C529.267 134.906 529.565 135.246 529.863 135.671C530.203 136.139 530.585 136.564 530.926 137.159C531.308 137.712 531.691 138.35 532.031 139.03C532.456 139.71 532.796 140.518 533.136 141.326C533.774 142.984 534.369 144.855 534.667 146.896C534.965 148.894 534.965 150.892 534.837 152.635C534.71 153.528 534.625 154.378 534.454 155.144C534.327 155.909 534.072 156.632 533.902 157.27C533.732 157.907 533.477 158.46 533.307 158.97C533.094 159.48 532.881 159.863 532.711 160.203C532.414 160.884 532.201 161.224 532.159 161.224C532.073 161.181 532.881 159.736 533.604 157.185C533.774 156.547 533.987 155.824 534.072 155.059C534.242 154.293 534.327 153.486 534.412 152.593C534.582 150.85 534.539 148.936 534.242 146.938C533.944 144.94 533.392 143.112 532.754 141.453C532.414 140.646 532.116 139.88 531.733 139.2C531.393 138.52 531.011 137.882 530.67 137.329C529.267 135.076 528.119 133.885 528.205 133.8Z" fill="#E0E0E0"/>
<path d="M27.3158 54.4644C27.3158 54.4644 34.4161 50.0001 42.3242 66.6241C50.2323 83.2481 53.1234 92.8144 53.1234 92.8144C53.1234 92.8144 55.2067 96.3008 57.6302 94.1324C60.0536 91.9641 63.4975 85.6716 67.4515 86.9471C71.5756 88.2226 72.8086 92.8994 71.8307 99.7021C70.8529 106.505 69.2372 121.513 69.1097 122.831C68.9821 124.192 69.6624 126.147 71.5756 124.957C73.4464 123.724 84.4582 112.159 89.6027 117.687C94.7897 123.256 88.9224 141.751 88.3272 143.792C87.732 145.79 88.1146 146.683 89.05 147.236C90.0279 147.746 93.3442 143.537 96.6179 140.348C99.8917 137.202 104.228 134.098 106.95 137.542C109.628 141.028 110.138 155.016 96.1928 177.38L89.05 187.371L76.8902 186.394C50.785 182.61 40.4535 173.171 39.5606 168.877C38.6678 164.54 43.8548 163.264 48.3616 162.797C52.9108 162.372 58.2679 162.542 58.4805 161.479C58.6931 160.416 58.2679 159.523 56.3122 158.673C54.3989 157.822 36.4994 150.339 35.6066 142.814C34.7137 135.289 50.6575 134.353 52.8258 133.715C54.9516 133.078 53.8887 131.249 52.7833 130.484C51.6778 129.719 39.2205 121.258 33.3957 117.644C27.5709 113.988 24.7648 109.991 26.4655 106.037C28.0811 102.168 35.0538 103.614 38.2851 103.188C41.5164 102.721 40.1984 98.8518 40.1984 98.8518C40.1984 98.8518 34.7987 90.476 27.2308 73.7244C19.6203 56.9303 27.4434 54.4218 27.4434 54.4218" fill="#EBEBEB"/>
<path d="M89.5602 190.263C83.8205 178.018 73.9566 156.122 65.4107 137.329C56.8649 118.58 49.0844 101.573 43.4296 89.3281C40.581 83.2057 38.2851 78.2312 36.6695 74.7874C35.8617 73.0867 35.2664 71.7687 34.8413 70.8333C34.6429 70.4082 34.487 70.068 34.3736 69.8129C34.2602 69.5862 34.2035 69.4586 34.2035 69.4303C34.2319 69.4303 34.3027 69.5437 34.4161 69.7704C34.5295 70.0255 34.6995 70.3657 34.9263 70.7908C35.3515 71.7262 35.9892 73.0442 36.797 74.7449C38.4552 78.1462 40.7936 83.0781 43.6422 89.2005C49.4245 101.445 57.205 118.409 65.7509 137.159C74.2967 155.952 84.1181 177.89 89.8153 190.178" fill="#E0E0E0"/>
<path d="M36.1593 108.461C36.1593 108.418 36.4569 108.503 37.0096 108.716C37.5198 108.928 38.2851 109.226 39.2205 109.609C41.0912 110.416 43.6422 111.564 46.4483 112.882C49.2119 114.2 51.7204 115.391 53.6336 116.326C54.484 116.723 55.2068 117.063 55.802 117.347C56.3122 117.559 56.6098 117.729 56.5673 117.729C56.5673 117.772 56.2697 117.687 55.7595 117.474C55.2068 117.262 54.4415 116.964 53.5061 116.581C51.6354 115.773 49.0844 114.583 46.3208 113.222C43.5572 111.947 41.0487 110.756 39.1355 109.864C38.2568 109.467 37.5198 109.127 36.9246 108.843C36.4144 108.631 36.1593 108.461 36.1593 108.461Z" fill="#E0E0E0"/>
<path d="M57.4601 117.006C57.3751 116.964 59.5009 111.564 62.2645 104.974C64.9856 98.3841 67.324 93.0696 67.409 93.1121C67.494 93.1546 65.3682 98.5542 62.6046 105.144C59.841 111.734 57.5451 117.049 57.4601 117.006Z" fill="#E0E0E0"/>
<path d="M69.2797 146.428C69.2797 146.428 69.4498 146.173 69.8324 145.705C70.2292 145.195 70.7394 144.557 71.363 143.792C72.6385 142.176 74.4242 139.923 76.3375 137.372C78.2082 134.863 79.8238 132.482 80.9718 130.782C81.5387 129.96 82.0063 129.28 82.3748 128.741C82.6724 128.273 82.885 128.018 82.9275 128.018C82.9275 128.061 82.8 128.316 82.5024 128.826C82.2048 129.336 81.7796 130.059 81.2269 130.909C80.1214 132.695 78.5058 135.076 76.6351 137.627C74.7218 140.178 72.9361 142.389 71.5756 143.962C70.8953 144.727 70.3426 145.365 69.9174 145.79C69.5348 146.215 69.3222 146.428 69.2797 146.428Z" fill="#E0E0E0"/>
<path d="M48.3191 142.942C48.3191 142.899 48.6167 142.942 49.1694 142.984C49.7646 143.069 50.5158 143.168 51.4228 143.282C53.2935 143.537 55.9295 143.919 58.8207 144.345C61.7118 144.812 64.3053 145.237 66.2186 145.535C67.0973 145.705 67.8342 145.847 68.4294 145.96C68.9822 146.045 69.2373 146.13 69.2373 146.13C69.2373 146.173 68.9396 146.173 68.4294 146.088C67.8059 146.003 67.0547 145.918 66.1761 145.833C64.2628 145.535 61.6268 145.152 58.7356 144.727C55.887 144.302 53.251 143.877 51.3803 143.537C50.5016 143.367 49.7505 143.225 49.1269 143.112C48.6167 143.027 48.3191 142.942 48.3191 142.942Z" fill="#E0E0E0"/>
<path d="M55.4618 170.237C55.4618 170.195 55.8444 170.237 56.5247 170.322C57.29 170.407 58.2537 170.521 59.4158 170.662C61.8393 171.003 65.1981 171.428 68.9396 171.98C72.6385 172.533 75.9973 173.001 78.4208 173.426C79.5829 173.596 80.5325 173.752 81.2694 173.894C81.9497 174.021 82.3323 174.064 82.3323 174.106C82.3323 174.149 81.9497 174.106 81.2694 174.021C80.5041 173.936 79.5404 173.823 78.3783 173.681C75.9548 173.341 72.596 172.873 68.8545 172.363C65.1556 171.81 61.7968 171.3 59.3733 170.918C58.2112 170.747 57.2617 170.592 56.5247 170.45C55.8444 170.322 55.4618 170.28 55.4618 170.237Z" fill="#E0E0E0"/>
<path d="M81.6946 173.851C81.6946 173.809 81.9072 173.468 82.3749 172.873C82.8426 172.235 83.4803 171.428 84.2456 170.407C85.8188 168.281 87.9446 165.348 90.2405 162.074C92.5364 158.8 94.5772 155.782 95.9802 153.571C96.703 152.508 97.2557 151.615 97.6809 150.935C98.1061 150.339 98.3186 149.999 98.3612 149.999C98.3612 150.042 98.1911 150.382 97.8085 151.02C97.4683 151.657 96.9156 152.593 96.2353 153.698C94.8323 155.952 92.8765 159.013 90.5806 162.287C88.2847 165.603 86.0739 168.494 84.4582 170.577C83.6079 171.598 82.9701 172.406 82.4599 173.001C81.9923 173.553 81.7372 173.851 81.6946 173.851Z" fill="#E0E0E0"/>
<path d="M280.333 155.016C258.564 144.047 250.358 119.047 247.807 95.8756C247.382 92.0066 246.362 88.01 247.722 84.3536C249.083 80.6971 252.994 77.7635 256.693 78.9114C259.754 79.8468 261.455 82.993 263.453 85.5015C266.132 88.8603 269.746 91.4113 273.742 92.8144C276.378 93.7497 279.525 94.0899 281.736 92.3892C284.797 90.0933 284.542 85.459 283.946 81.6325C282.869 74.4897 281.792 67.3469 280.715 60.2041C280.162 56.3776 279.567 52.5086 280.247 48.6821C280.885 44.8556 283.054 41.1141 286.54 39.5835C290.026 38.0104 294.831 39.456 296.149 43.1124C296.701 44.643 296.616 46.3012 296.957 47.8743C297.297 49.4474 298.275 51.1055 299.848 51.3181C301.463 51.5307 302.824 50.2552 303.802 48.9372C307.203 44.5154 309.159 39.1584 310.945 33.8438C312.73 28.5292 314.431 23.0871 317.407 18.3677C320.383 13.6058 324.89 9.56676 330.332 8.46132C335.774 7.35589 342.109 9.90689 344.235 15.0939C346.403 20.281 344.065 26.1908 341.259 31.0802C337.135 38.308 331.948 44.8981 325.91 50.5953C324.847 51.6582 323.657 52.7637 323.402 54.2518C322.934 56.9303 325.74 59.0987 328.376 59.5663C331.353 60.1191 334.414 59.3538 337.475 59.2687C340.494 59.2262 343.937 60.0765 345.468 62.7126C347.594 66.4115 344.915 70.9608 342.067 74.1496C336.412 80.442 329.652 85.7566 322.211 89.7532C319.533 91.1987 316.727 92.5593 314.728 94.8552C312.73 97.1511 311.88 100.808 313.623 103.316C315.409 105.782 319.065 106.165 321.914 105.187C324.805 104.209 327.186 102.211 329.864 100.765C334.839 98.0014 341.684 97.4062 345.723 101.445C348.359 104.124 349.167 108.248 348.529 111.989C347.934 115.688 346.106 119.09 344.108 122.278C337.092 133.375 327.441 142.942 315.876 148.936C304.269 154.931 293.13 157.695 280.333 155.016Z" fill="#F5F5F5"/>
<path d="M284.202 139.71C285.945 127.551 288.921 114.413 292.492 100.765C293.399 97.3637 294.292 94.0049 295.171 90.6886C296.064 87.3723 296.957 84.0985 298.019 80.9523C300.145 74.6173 302.611 68.7075 305.162 63.1804C307.713 57.6107 310.349 52.4662 312.815 47.6193C315.324 42.8149 317.747 38.3506 320.086 34.3966C324.805 26.4885 329.397 20.5361 332.671 16.5821C334.329 14.6263 335.647 13.1382 336.54 12.1178C336.993 11.636 337.347 11.2675 337.602 11.0124C337.829 10.7573 337.943 10.6298 337.943 10.6298C337.971 10.6298 337.872 10.7715 337.645 11.0549C337.39 11.3384 337.064 11.721 336.667 12.2029C335.774 13.2658 334.499 14.7539 332.883 16.7947C329.652 20.7912 325.188 26.7436 320.553 34.6942C318.215 38.6482 315.834 43.07 313.368 47.9169C310.902 52.7213 308.309 57.9083 305.758 63.4354C303.249 68.9626 300.783 74.8724 298.7 81.1649C297.637 84.3111 296.744 87.5849 295.851 90.9012C294.972 94.2175 294.08 97.5763 293.173 100.978C289.601 114.583 286.583 127.721 284.839 139.795" fill="#E0E0E0"/>
<path d="M298.232 80.9098C298.19 80.9098 297.977 80.3571 297.594 79.2941C297.254 78.2737 296.787 76.7857 296.234 74.9149C295.171 71.1735 293.81 65.9864 292.365 60.2042C290.919 54.4644 289.516 49.2774 288.368 45.5784C287.816 43.7502 287.348 42.2196 287.008 41.1992C286.668 40.1788 286.498 39.5836 286.54 39.5836C286.583 39.5411 286.838 40.0938 287.263 41.1142C287.688 42.0921 288.241 43.5801 288.878 45.4509C290.111 49.1073 291.6 54.2943 293.088 60.0341C294.491 65.7313 295.766 70.8333 296.744 74.7874C297.198 76.5447 297.58 78.0328 297.892 79.2516C298.147 80.272 298.275 80.8673 298.232 80.9098Z" fill="#E0E0E0"/>
<path d="M346.106 64.5834C346.148 64.6259 345.426 64.796 344.193 65.0936C342.96 65.3912 341.131 65.8164 338.921 66.4116C334.499 67.517 328.419 69.3027 321.786 71.5986C315.196 73.852 309.286 76.1904 305.077 77.9761C302.951 78.869 301.251 79.6343 300.06 80.1445C298.912 80.6547 298.232 80.9523 298.232 80.9098C298.19 80.8673 298.827 80.4846 299.975 79.8894C301.081 79.2941 302.781 78.4438 304.865 77.5084C309.031 75.5952 314.941 73.1717 321.574 70.9184C328.206 68.6225 334.329 66.9218 338.793 65.9014C341.046 65.3912 342.875 65.0511 344.15 64.8385C345.426 64.6259 346.106 64.5409 346.106 64.5834Z" fill="#E0E0E0"/>
<path d="M284.669 138.69C284.669 138.718 284.528 138.534 284.244 138.137C283.961 137.712 283.606 137.159 283.181 136.479C282.203 135.033 280.885 132.908 279.312 130.272C276.123 124.957 271.957 117.517 267.45 109.226C262.943 100.935 258.819 93.4522 255.758 88.0951C254.27 85.5015 253.037 83.3757 252.101 81.7601C251.705 81.0798 251.379 80.4987 251.124 80.0169C250.897 79.6201 250.798 79.4217 250.826 79.4217C250.826 79.3933 250.968 79.5775 251.251 79.9744C251.535 80.3995 251.889 80.9523 252.314 81.6325C253.292 83.0781 254.61 85.2039 256.183 87.84C259.372 93.1545 263.581 100.595 268.045 108.886C272.552 117.176 276.676 124.659 279.737 130.016C281.225 132.61 282.458 134.736 283.394 136.351C283.791 137.032 284.117 137.599 284.372 138.052C284.598 138.477 284.698 138.69 284.669 138.69Z" fill="#E0E0E0"/>
<path d="M347.041 108.163C347.069 108.191 346.871 108.305 346.446 108.503C345.964 108.758 345.369 109.07 344.66 109.438C342.96 110.246 340.706 111.352 337.985 112.712C332.33 115.476 324.592 119.43 316.047 123.767C307.501 128.103 299.678 131.93 293.98 134.608C291.132 135.926 288.836 136.989 287.22 137.669C286.483 137.981 285.86 138.251 285.349 138.477C284.924 138.647 284.698 138.718 284.669 138.69C284.669 138.662 284.882 138.548 285.307 138.35C285.789 138.095 286.384 137.783 287.093 137.414C288.793 136.607 291.047 135.501 293.768 134.141C299.422 131.377 307.16 127.465 315.706 123.129C324.252 118.75 332.033 114.923 337.73 112.245C340.579 110.927 342.917 109.864 344.533 109.183C345.27 108.872 345.893 108.602 346.403 108.376C346.829 108.205 347.041 108.135 347.041 108.163Z" fill="#E0E0E0"/>
<path fill-rule="evenodd" clip-rule="evenodd" d="M451.547 64.4134L440.195 93.8774C438.579 98.0865 432.585 98.1291 430.926 93.9199L419.362 64.5834C415.961 57.7382 414.302 49.4475 418.044 42.2197C419.745 38.9459 422.508 36.2673 425.867 34.6942C440.748 27.764 455.288 36.5649 455.288 50.4254C455.288 50.4254 455.459 55.4423 451.547 64.4134ZM444.532 59.1413C449.974 48.5546 439.855 37.7979 429.863 43.6227C428.545 44.388 427.44 45.5785 426.717 46.9815C421.233 57.5682 431.352 68.3249 441.343 62.5001C442.661 61.7348 443.809 60.5443 444.532 59.1413Z" fill="#F5F5F5"/>
<path d="M575.823 333.119C575.823 333.246 448.316 333.331 291.004 333.331C133.693 333.331 6.18506 333.246 6.18506 333.119C6.18506 332.991 133.693 332.863 291.004 332.863C448.316 332.863 575.823 332.991 575.823 333.119Z" fill="#263238"/>
<path d="M247.765 333.118L134.755 332.566C121.15 332.523 110.181 321.469 110.223 307.864L111.456 24.4901C111.499 10.8848 122.553 -0.0845423 136.158 0.000491057L249.21 0.510693C262.816 0.55321 273.785 11.6501 273.7 25.2129L272.509 308.586C272.467 322.192 261.37 333.161 247.765 333.118Z" fill="#455A64"/>
<path d="M266.217 27.5938L265.026 304.165C264.984 313.688 257.246 321.384 247.722 321.341L134.925 320.831C125.402 320.789 117.706 313.051 117.749 303.527L118.897 26.9136C118.939 17.3898 126.72 9.73683 136.243 9.77935L155.418 9.86439H163.114C166.048 9.9069 168.429 12.4154 168.429 15.4766L168.386 19.4306C168.386 22.5343 170.767 25.0003 173.701 25.0428L216.43 25.2129C219.364 25.2554 221.744 22.7469 221.744 19.6857L221.787 15.7317C221.787 12.628 224.168 10.162 227.144 10.162L249.04 10.2895C258.564 10.3321 266.259 18.0701 266.217 27.5938Z" fill="#FAFAFA"/>
<path d="M118.769 60.119H137.264L153.76 76.6155L136.626 93.7922L118.982 76.1478L118.769 60.119Z" fill="#EBEBEB"/>
<path d="M157.544 69.3876L148.276 60.119H169.109L157.544 69.3876Z" fill="#EBEBEB"/>
<path d="M165.622 76.9556L181.864 60.7142H238.581C238.581 60.7142 247.254 99.4894 213.114 124.404L165.622 76.9556Z" fill="#EBEBEB"/>
<path d="M206.736 129.591L189.389 147.533L141.303 99.4894L158.692 82.1001L206.736 129.591Z" fill="#EBEBEB"/>
<path d="M118.769 87.3722L129.441 98.0439L118.557 109.311L118.769 87.3722Z" fill="#EBEBEB"/>
<path d="M183.012 152.763L153.76 179.973L119.237 144.642V121.428L135.946 104.719L183.012 152.763Z" fill="#EBEBEB"/>
<path d="M219.576 129.251C219.576 129.251 255.375 103.018 243.811 60.7142H266.047L265.792 180.058L219.576 129.251Z" fill="#EBEBEB"/>
<path d="M264.856 190.135L248.615 207.312L195.512 154.208L212.859 136.139L264.856 190.135Z" fill="#EBEBEB"/>
<path d="M242.663 213.987L215.495 240.262L161.073 186.223L188.284 159.183L242.663 213.987Z" fill="#EBEBEB"/>
<path d="M174.041 294.556L215.622 251.444L255.205 291.792L174.041 294.556Z" fill="#EBEBEB"/>
<path d="M222.127 245.874L265.452 202.932C265.452 204.846 265.069 292.005 265.069 292.005L222.127 245.874Z" fill="#EBEBEB"/>
<path d="M185.01 221.767L209.627 246.342L161.073 296.427L138.667 269.514L185.01 221.767Z" fill="#EBEBEB"/>
<path d="M118.599 153.103L180.376 217.133C180.376 217.133 120.938 272.787 118.599 273V153.103Z" fill="#EBEBEB"/>
<path d="M117.749 285.712L132.077 273L151.89 296.427H117.749V287.456" fill="#EBEBEB"/>
<path d="M136.286 43.2825C136.201 43.3675 134.288 41.7093 132.034 39.5835C132.034 38.9458 132.034 39.4134 132.034 39.2434L132.077 39.2009L132.119 39.1583L132.247 39.0733L132.46 38.8607C132.573 38.719 132.7 38.5915 132.842 38.4781C133.126 38.223 133.381 37.982 133.608 37.7553C134.089 37.3585 134.543 36.9616 134.968 36.5648C135.733 35.9271 136.244 35.5019 136.286 35.5444C136.329 35.5869 135.903 36.0971 135.181 36.8199C134.784 37.2167 134.359 37.6277 133.905 38.0529C133.65 38.308 133.395 38.5489 133.14 38.7757C132.998 38.9174 132.871 39.045 132.757 39.1583L132.545 39.3709L132.417 39.456L132.375 39.541H132.332V39.5835C132.332 39.4134 132.332 39.8811 132.332 39.2434C134.585 41.3692 136.371 43.1974 136.286 43.2825Z" fill="#263238"/>
<path d="M253.802 36.7775C253.802 37.2877 253.377 37.7129 252.867 37.7129C252.356 37.7129 251.974 37.2877 251.974 36.7775C251.974 36.2673 252.356 35.8422 252.867 35.8422C253.377 35.8422 253.802 36.2673 253.802 36.7775Z" fill="#263238"/>
<path d="M253.547 39.286C253.887 39.6686 253.887 40.2639 253.547 40.604C253.164 40.9866 252.569 40.9866 252.229 40.604C251.889 40.2639 251.889 39.6686 252.229 39.286C252.569 38.9459 253.164 38.9459 253.547 39.286Z" fill="#263238"/>
<path d="M253.802 43.1125C253.802 43.6227 253.377 44.0478 252.867 44.0478C252.356 44.0478 251.974 43.6227 251.974 43.1125C251.974 42.6023 252.356 42.2196 252.867 42.2196C253.377 42.2196 253.802 42.6023 253.802 43.1125Z" fill="#263238"/>
<path d="M213.964 43.8777H174.168V40.5614H213.964V43.8777Z" fill="#263238"/>
<path fill-rule="evenodd" clip-rule="evenodd" d="M205.418 115.688L192.748 148.596C190.92 153.358 184.245 153.358 182.374 148.639L169.449 115.901C165.665 108.248 163.837 98.9792 168.003 90.9011C169.917 87.2446 173.02 84.2685 176.762 82.5253C193.343 74.7872 209.627 84.5661 209.627 100.085C209.627 100.085 209.797 105.654 205.418 115.688ZM197.595 109.821C203.717 97.9588 192.408 85.9691 181.226 92.4742C179.738 93.3245 178.505 94.6425 177.697 96.2156C171.575 108.078 182.884 120.067 194.024 113.562C195.512 112.712 196.745 111.394 197.595 109.821Z" fill="#09B825"/>
<path d="M547.847 334.96H76.0824V265.7H547.847V334.96Z" fill="#00AFF5"/>
<g opacity="0.5">
<path d="M547.847 334.96H76.0824V265.7H547.847V334.96Z" fill="black"/>
</g>
<path d="M140.112 289C165.24 289.34 185.308 310.003 184.968 335.13C184.585 360.258 163.922 380.325 138.837 379.985C113.71 379.603 93.6418 358.94 93.9819 333.812C94.3645 308.685 115.028 288.617 140.112 289Z" fill="#263238"/>
<path d="M184.968 335.003C184.968 335.059 184.968 335.102 184.968 335.13C184.585 360.257 163.922 380.325 138.837 379.985C113.71 379.603 93.6418 358.939 93.9819 333.812C93.9819 333.784 93.9819 333.741 93.9819 333.685L184.968 335.003Z" fill="#263238"/>
<path d="M139.942 302.562C157.587 302.817 171.66 317.316 171.405 334.96C171.15 352.562 156.651 366.677 139.007 366.422C121.363 366.167 107.29 351.669 107.545 334.025C107.8 316.38 122.298 302.307 139.942 302.562Z" fill="#FAFAFA"/>
<path d="M171.405 334.96L107.545 334.025C107.8 316.38 122.298 302.307 139.942 302.562C157.587 302.817 171.66 317.316 171.405 334.96Z" fill="#E0E0E0"/>
<path d="M139.772 315.02C150.487 315.19 159.075 324.033 158.947 334.748C158.777 345.504 149.934 354.093 139.177 353.923C128.463 353.795 119.875 344.952 120.045 334.195C120.172 323.438 129.016 314.85 139.772 315.02Z" fill="#263238"/>
<path d="M487.984 289C513.111 289.34 533.179 310.003 532.839 335.13C532.456 360.258 511.836 380.325 486.708 379.985C461.581 379.603 441.513 358.94 441.853 333.812C442.236 308.685 462.899 288.617 487.984 289Z" fill="#263238"/>
<path d="M532.839 335.003C532.839 335.059 532.839 335.102 532.839 335.13C532.456 360.257 511.836 380.325 486.708 379.985C461.581 379.603 441.513 358.939 441.853 333.812C441.853 333.784 441.853 333.741 441.853 333.685L532.839 335.003Z" fill="#263238"/>
<path d="M487.814 302.562C505.458 302.817 519.531 317.316 519.276 334.96C519.021 352.562 504.523 366.677 486.878 366.422C469.234 366.167 455.161 351.669 455.416 334.025C455.671 316.38 470.169 302.307 487.814 302.562Z" fill="#FAFAFA"/>
<path d="M519.276 334.96L455.416 334.025C455.671 316.38 470.169 302.307 487.814 302.562C505.458 302.817 519.531 317.316 519.276 334.96Z" fill="#E0E0E0"/>
<path d="M487.644 315.02C498.358 315.19 506.946 324.033 506.819 334.748C506.648 345.504 497.805 354.093 487.048 353.923C476.334 353.795 467.746 344.952 467.916 334.195C468.043 323.438 476.887 314.85 487.644 315.02Z" fill="#263238"/>
<path d="M282.883 183.431C300.74 175.565 332.798 172.929 332.798 172.929C332.798 172.929 425.952 172.674 449.421 172.929C468.681 173.142 479.183 173.78 482.882 174.077C483.874 174.162 484.838 174.361 485.773 174.672C491.98 176.841 518.383 185.939 531.733 190.531C534.88 191.594 535.347 195.846 532.541 197.589L530.883 198.652C530.883 198.652 566.044 230.837 572.464 236.151C578.884 241.466 574.718 272.291 574.718 272.291C578.884 272.461 582.201 275.819 582.328 279.986L582.668 292.188C582.668 292.188 585.475 305.964 574.76 325.351C564.046 344.696 541.002 342.698 541.002 342.698C541.002 342.698 550.526 278.456 487.941 278.541C425.314 278.626 435.306 342.273 435.306 342.273H192.578C192.578 342.273 196.447 276.967 138.284 278.796C81.1419 280.624 86.7116 342.868 86.7116 342.868C86.7116 342.868 77.5705 342.996 72.7661 342.868C43.5572 341.933 46.6183 319.314 46.6183 304.731C46.6183 290.148 59.1183 284.408 59.1183 284.408L56.4397 269.187C56.0571 247.971 89.7728 241.211 107.29 237.299C132.119 231.73 199.126 226.755 199.126 226.755C199.126 226.755 264.134 191.679 282.883 183.431Z" fill="#00AFF5"/>
<g opacity="0.4">
<path d="M65.5382 304.221C65.9208 304.688 66.261 305.454 66.3885 306.091C66.9837 309.323 66.7287 312.086 66.7712 315.36C66.8137 317.656 66.6436 320.207 65.0705 321.908C63.3273 323.736 60.2661 323.948 58.0553 322.715C55.8444 321.525 54.3988 319.187 53.8036 316.721C53.2084 314.255 53.3359 311.704 53.6335 309.195C53.8461 307.367 54.2288 305.369 55.5893 304.136C57.46 302.52 61.159 302.563 63.5824 303.03C64.3902 303.073 64.9004 303.413 65.5382 304.221Z" fill="black"/>
</g>
<path d="M56.4396 269.187C61.8818 267.401 67.8766 266.933 73.5738 267.486C75.9123 267.699 78.3357 268.166 80.0789 269.697C82.97 272.163 83.1826 276.5 83.1401 280.326C83.1401 281.219 83.0976 282.282 82.4173 282.92C81.8221 283.43 81.0143 283.515 80.249 283.557C73.1487 284.025 66.261 284.45 59.1182 284.408L56.4396 269.187Z" fill="#FAFAFA"/>
<path d="M206.779 340.317C206.779 340.317 206.764 340.119 206.736 339.722C206.708 339.297 206.665 338.702 206.609 337.936C206.523 336.363 206.396 334.067 206.268 331.091C206.098 328.115 205.886 324.459 205.461 320.249C205.035 316.04 204.355 311.236 202.952 306.091C201.507 300.989 199.338 295.505 196.107 290.148C192.833 284.833 188.581 279.518 182.884 275.394C171.405 267.231 155.886 262.597 139.687 262.427C123.403 262.214 107.97 267.359 96.788 275.905C91.1333 280.114 86.4565 285.003 82.8851 290.105C79.2286 295.207 76.5926 300.479 74.7219 305.454C72.8086 310.428 71.8307 315.19 71.278 319.357C70.6828 323.566 70.7678 327.222 70.8528 330.198C71.1079 333.174 71.363 335.47 71.7032 337.001C71.8449 337.766 71.9441 338.347 72.0008 338.744C72.0858 339.169 72.1142 339.382 72.0858 339.382C72.0858 339.382 72.0433 339.183 71.9583 338.787C71.8733 338.361 71.7599 337.78 71.6182 337.043C71.2355 335.47 70.9379 333.174 70.6828 330.198C70.5552 327.222 70.4277 323.566 71.0229 319.357C71.5756 315.147 72.5535 310.343 74.4243 305.326C76.295 300.309 78.931 295.037 82.5874 289.892C86.1588 284.748 90.8782 279.816 96.5329 275.607C107.8 266.933 123.318 261.789 139.687 261.959C155.971 262.172 171.532 266.806 183.097 275.054C188.879 279.221 193.173 284.578 196.405 289.935C199.678 295.377 201.847 300.862 203.25 306.006C204.653 311.193 205.291 315.998 205.716 320.207C206.098 324.416 206.268 328.072 206.438 331.049C206.566 334.025 206.651 336.363 206.736 337.936C206.764 338.702 206.779 339.297 206.779 339.722C206.807 340.119 206.807 340.317 206.779 340.317Z" fill="white"/>
<path d="M209.372 341.38C209.372 341.38 209.358 341.21 209.33 340.87C209.33 340.53 209.315 340.034 209.287 339.382C209.245 338.021 209.202 336.066 209.117 333.515C208.947 328.328 208.734 320.802 208.479 311.193C208.224 301.585 207.884 289.935 207.544 276.585C207.43 273.24 207.331 269.796 207.246 266.253C207.119 264.468 207.331 262.682 207.501 260.854C207.615 259.947 207.742 259.04 207.884 258.133C208.054 257.197 208.238 256.276 208.437 255.369C209.287 251.713 210.52 248.056 212.221 244.485C213.921 240.913 215.877 237.384 218.428 234.111H218.471V234.068C231.481 225.905 245.596 217.019 260.52 207.623C264.261 205.27 268.045 202.889 271.872 200.48C275.613 197.929 279.695 195.718 283.904 193.762C288.07 191.764 292.45 190.063 296.956 188.533C299.167 187.768 301.463 187.13 303.759 186.45C306.055 185.854 308.351 185.217 310.732 184.706C319.788 182.708 328.886 181.73 337.815 181.305C346.743 180.88 355.502 180.922 364.048 181.39H364.303L364.218 181.645C360.221 199.63 356.395 216.636 352.951 232.155L352.908 232.197V232.24C350.782 235.726 349.124 239.383 347.849 243.082C346.616 246.781 345.851 250.607 346.148 254.306C346.403 258.048 346.531 261.704 346.616 265.233C346.673 268.776 346.743 272.22 346.828 275.564C346.999 288.915 347.084 300.564 347.084 310.173C347.126 319.739 347.126 327.307 347.126 332.452C347.126 335.003 347.126 336.958 347.084 338.319C347.084 338.971 347.084 339.467 347.084 339.807C347.084 340.147 347.084 340.317 347.084 340.317C347.084 340.317 347.069 340.147 347.041 339.807C347.041 339.467 347.041 338.971 347.041 338.319C347.041 336.958 347.041 335.003 346.999 332.452C346.956 327.307 346.913 319.739 346.871 310.173C346.786 300.564 346.743 288.915 346.488 275.564C346.432 272.248 346.361 268.818 346.276 265.275C346.191 261.704 346.063 258.09 345.766 254.349C345.51 250.565 346.276 246.696 347.509 242.954C348.742 239.255 350.442 235.556 352.568 232.027V232.07C356.012 216.551 359.796 199.545 363.793 181.56L364.005 181.815C355.502 181.348 346.743 181.305 337.815 181.73C328.929 182.155 319.83 183.133 310.817 185.174C308.478 185.642 306.183 186.279 303.844 186.875C301.591 187.555 299.295 188.193 297.084 188.958C292.62 190.446 288.24 192.189 284.074 194.145C279.907 196.143 275.868 198.269 272.127 200.82C268.272 203.229 264.488 205.61 260.775 207.963C245.809 217.359 231.693 226.245 218.683 234.408L218.726 234.366C216.217 237.597 214.219 241.083 212.561 244.655C210.86 248.184 209.627 251.84 208.777 255.454C206.864 262.724 207.841 269.91 207.841 276.585C208.182 289.935 208.479 301.585 208.692 311.193C208.947 320.802 209.117 328.328 209.245 333.472C209.287 336.066 209.33 338.021 209.372 339.382C209.372 340.034 209.372 340.53 209.372 340.87C209.372 341.21 209.372 341.38 209.372 341.38Z" fill="#263238"/>
<path d="M363.75 182.835C363.75 182.835 363.878 182.821 364.133 182.793C364.416 182.793 364.813 182.779 365.323 182.75C366.344 182.75 367.874 182.708 369.83 182.665C373.784 182.58 379.481 182.453 386.582 182.325C400.782 182.07 420.595 181.73 443.001 181.347H443.129L443.214 181.432C445.722 184.536 448.401 187.81 451.122 191.126C459.115 200.948 466.768 210.301 473.698 218.805C474.548 219.882 475.399 220.93 476.249 221.951C477.099 223.014 477.822 224.162 478.375 225.352C479.48 227.733 480.033 230.284 480.076 232.75C480.076 235.216 479.565 237.597 478.673 239.723C477.794 241.792 476.944 243.79 476.122 245.718C472.848 253.328 470.169 259.493 468.299 263.745C467.406 265.871 466.683 267.529 466.173 268.677C465.918 269.215 465.733 269.64 465.62 269.952C465.478 270.236 465.407 270.377 465.407 270.377C465.407 270.349 465.464 270.193 465.577 269.91C465.691 269.598 465.861 269.173 466.088 268.634C466.555 267.486 467.278 265.828 468.171 263.702C469.957 259.408 472.593 253.201 475.824 245.59C477.312 241.721 479.863 237.682 479.693 232.75C479.693 230.327 479.098 227.861 478.035 225.522C477.468 224.36 476.774 223.255 475.952 222.206C475.101 221.186 474.237 220.137 473.358 219.06C466.428 210.556 458.775 201.203 450.739 191.381C448.061 188.065 445.382 184.834 442.874 181.73L443.044 181.815C420.637 182.113 400.825 182.41 386.582 182.623C379.481 182.708 373.784 182.75 369.83 182.793C367.874 182.836 366.344 182.835 365.323 182.835C364.813 182.835 364.416 182.835 364.133 182.835C363.878 182.835 363.75 182.835 363.75 182.835Z" fill="#263238"/>
<path d="M335.264 257.877C335.264 257.877 335.477 257.877 335.944 257.792C336.369 257.707 337.007 257.537 337.73 257.07C338.41 256.644 339.175 255.837 339.516 254.731C339.728 254.136 339.813 253.541 339.771 252.86C339.771 252.18 339.601 251.457 339.26 250.82C338.58 249.502 337.092 248.439 335.306 248.439C333.521 248.439 331.622 248.439 329.609 248.439C325.528 248.439 321.106 248.481 316.472 248.481C315.324 248.481 314.261 248.906 313.453 249.629C312.645 250.352 312.135 251.372 312.05 252.435C311.922 253.498 312.092 254.519 312.56 255.411C313.07 256.304 313.878 256.985 314.771 257.367C315.664 257.75 316.599 257.707 317.577 257.707C318.541 257.707 319.476 257.707 320.383 257.707C322.169 257.707 323.827 257.722 325.358 257.75C328.376 257.75 330.842 257.792 332.585 257.792C333.407 257.821 334.073 257.835 334.584 257.835C335.037 257.863 335.264 257.877 335.264 257.877C335.264 257.906 335.037 257.92 334.584 257.92C334.073 257.948 333.407 257.962 332.585 257.962C330.842 258.005 328.376 258.005 325.358 258.047C323.827 258.047 322.169 258.062 320.383 258.09C319.476 258.09 318.541 258.09 317.577 258.09C317.109 258.09 316.642 258.09 316.131 258.09C315.621 258.047 315.069 257.92 314.601 257.707C313.623 257.325 312.773 256.602 312.22 255.624C311.667 254.689 311.497 253.498 311.625 252.35C311.71 251.245 312.262 250.097 313.155 249.289C314.048 248.481 315.239 248.014 316.472 248.014C321.106 248.014 325.528 248.056 329.609 248.056C331.622 248.056 333.535 248.056 335.349 248.056C337.22 248.099 338.793 249.289 339.516 250.692C339.856 251.372 340.026 252.138 340.068 252.818C340.068 253.541 339.983 254.221 339.771 254.774C339.346 255.964 338.538 256.772 337.815 257.24C337.05 257.665 336.369 257.835 335.944 257.877C335.477 257.92 335.264 257.877 335.264 257.877Z" fill="#263238"/>
<path d="M461.028 257.877C461.028 257.877 461.283 257.877 461.708 257.792C462.134 257.707 462.814 257.537 463.494 257.07C464.217 256.644 464.94 255.837 465.322 254.731C465.535 254.136 465.577 253.541 465.577 252.86C465.535 252.18 465.365 251.457 465.025 250.82C464.344 249.502 462.856 248.439 461.113 248.439C459.299 248.439 457.386 248.439 455.373 248.439C451.334 248.439 446.913 248.481 442.236 248.481C441.13 248.481 440.025 248.906 439.26 249.629C438.452 250.352 437.942 251.372 437.814 252.435C437.729 253.498 437.857 254.519 438.367 255.411C438.877 256.304 439.642 256.985 440.535 257.367C441.428 257.75 442.406 257.707 443.384 257.707C444.347 257.707 445.269 257.707 446.147 257.707C447.961 257.707 449.634 257.722 451.164 257.75C454.183 257.75 456.649 257.792 458.392 257.792C459.214 257.821 459.866 257.835 460.348 257.835C460.801 257.863 461.028 257.877 461.028 257.877C461.028 257.906 460.801 257.92 460.348 257.92C459.866 257.948 459.214 257.962 458.392 257.962C456.649 258.005 454.183 258.005 451.164 258.047C449.634 258.047 447.961 258.062 446.147 258.09C445.269 258.09 444.347 258.09 443.384 258.09C442.874 258.09 442.406 258.09 441.896 258.09C441.385 258.047 440.875 257.92 440.408 257.707C439.43 257.325 438.537 256.602 437.984 255.624C437.431 254.689 437.261 253.498 437.389 252.35C437.516 251.245 438.069 250.097 438.962 249.289C439.812 248.481 441.003 248.014 442.236 248.014C446.913 248.014 451.334 248.056 455.373 248.056C457.414 248.056 459.327 248.056 461.113 248.056C463.026 248.099 464.6 249.289 465.322 250.692C465.662 251.372 465.832 252.138 465.832 252.818C465.875 253.541 465.79 254.221 465.577 254.774C465.152 255.964 464.344 256.772 463.579 257.24C462.856 257.665 462.176 257.835 461.751 257.877C461.283 257.92 461.028 257.877 461.028 257.877Z" fill="#263238"/>
<path d="M572.762 272.588L547.55 272.801L537.686 250.395C536.538 247.801 536.665 244.825 537.941 242.316C539.556 239.255 542.745 237.384 546.189 237.384H571.359C578.119 244.145 572.762 272.588 572.762 272.588Z" fill="#FAFAFA"/>
<path d="M282.203 194.06C310.264 178.329 345.851 180.412 345.851 180.412L440.365 181.177C443.384 181.22 446.19 182.623 447.976 185.004L465.322 207.793C466.895 209.876 466.3 212.852 464.047 214.17L436.198 230.242L351.675 231.815L221.787 234.196C221.787 234.196 252.697 210.599 282.203 194.06Z" fill="#263238"/>
<path d="M281.31 182.793C281.31 182.793 287.815 185.727 283.564 188.49C279.354 191.254 213.539 232.708 213.539 232.708L198.403 225.862C225.231 210.939 252.271 196.441 281.31 182.793Z" fill="#455A64"/>
<path d="M215.665 233.771C215.665 233.771 215.537 233.799 215.282 233.856C214.97 233.912 214.559 233.997 214.049 234.111C212.986 234.366 211.455 234.663 209.457 235.089C205.418 235.896 199.636 237.002 192.408 238.235C177.995 240.743 157.969 243.634 135.691 245.548C130.121 246.015 124.679 246.44 119.449 246.781C114.177 247.121 109.118 247.418 104.313 247.886C94.6621 248.694 86.0312 250.097 79.0585 252.18C72.0007 254.221 66.6436 256.815 63.1148 258.855C61.2865 259.791 60.011 260.726 59.1182 261.279C58.6647 261.562 58.3104 261.789 58.0553 261.959C57.8285 262.101 57.7151 262.172 57.7151 262.172C57.7151 262.172 57.8285 262.087 58.0553 261.917C58.282 261.746 58.608 261.52 59.0332 261.236C59.9685 260.641 61.244 259.663 63.0297 258.685C66.5586 256.602 71.9157 253.966 78.931 251.883C85.9887 249.757 94.6196 248.311 104.271 247.461C109.075 246.993 114.135 246.696 119.407 246.355C124.679 245.973 130.078 245.59 135.648 245.08C157.884 243.167 177.91 240.318 192.365 237.937C199.593 236.747 205.376 235.641 209.415 234.918C211.413 234.536 212.986 234.238 214.049 234.026C214.559 233.941 214.956 233.87 215.239 233.813C215.523 233.785 215.665 233.771 215.665 233.771Z" fill="#263238"/>
<path d="M581.393 291.933C581.393 292.061 572.762 292.146 562.09 292.146C551.419 292.146 542.745 292.061 542.745 291.933C542.745 291.806 551.419 291.678 562.09 291.678C572.762 291.678 581.393 291.806 581.393 291.933Z" fill="#263238"/>
<path d="M423.061 313.999C423.061 314.127 374.209 314.212 313.921 314.212C253.632 314.212 204.78 314.127 204.78 313.999C204.78 313.872 253.632 313.787 313.921 313.787C374.209 313.787 423.061 313.872 423.061 313.999Z" fill="#263238"/>
<path d="M80.9293 292.656C80.9293 292.784 73.999 292.869 65.4957 292.869C56.9924 292.869 50.0622 292.784 50.0622 292.656C50.0622 292.529 56.9924 292.443 65.4957 292.443C73.999 292.443 80.9293 292.529 80.9293 292.656Z" fill="#263238"/>
<path d="M569.616 233.686L552.482 230.454C552.482 230.454 528.927 213.788 526.674 209.026C524.378 204.264 530.16 197.759 530.16 197.759L569.616 233.686Z" fill="#455A64"/>
<path d="M442.321 186.152L460.305 209.579L432.542 225.692L363.75 227.691L367.577 186.152H442.321Z" fill="#455A64"/>
<path d="M238.071 229.816C238.071 229.816 279.61 199.8 295.978 193.847C311.795 188.108 320 186.662 334.881 186.237C349.039 185.854 357.713 186.237 357.713 186.237L346.743 228.456L238.071 229.816Z" fill="#455A64"/>
<path d="M231.991 229.944C231.991 227.308 233.436 224.884 235.732 223.609L245.256 218.252C247.977 216.721 251.038 215.913 254.142 215.913C256.098 215.913 258.011 216.211 259.797 216.806C263.878 218.124 266.599 222.036 266.77 226.288C266.982 232.24 262.22 237.214 256.268 237.214H239.261C235.265 237.214 231.991 233.941 231.991 229.944Z" fill="#00AFF5"/>
<path d="M231.991 229.944C232.033 229.944 232.033 230.242 232.118 230.837C232.203 231.475 232.416 232.325 232.969 233.345C233.522 234.323 234.457 235.429 235.86 236.236C236.583 236.619 237.433 236.874 238.326 237.002C239.219 237.087 240.239 237.044 241.26 237.044C245.426 237.044 250.358 237.002 255.8 237.002C257.161 237.002 258.521 236.832 259.839 236.321C261.157 235.854 262.39 235.089 263.453 234.068C264.474 233.048 265.366 231.772 265.877 230.369C266.429 228.966 266.642 227.393 266.514 225.862C266.259 222.759 264.644 219.91 262.22 218.252C261.03 217.402 259.669 216.934 258.266 216.594C256.906 216.254 255.503 216.126 254.142 216.126C251.464 216.126 248.913 216.721 246.702 217.699C245.596 218.209 244.618 218.805 243.598 219.357C242.606 219.896 241.656 220.42 240.749 220.93C238.964 221.951 237.305 222.844 235.86 223.652C234.457 224.417 233.522 225.522 232.969 226.543C232.416 227.521 232.203 228.413 232.118 229.009C232.033 229.604 232.033 229.944 231.991 229.944C231.991 229.944 231.948 229.604 232.033 229.009C232.076 228.413 232.246 227.478 232.799 226.458C233.351 225.395 234.287 224.247 235.775 223.439C237.178 222.631 238.836 221.696 240.622 220.675C241.529 220.165 242.464 219.627 243.428 219.06C244.406 218.507 245.426 217.869 246.532 217.359C248.785 216.339 251.379 215.701 254.142 215.701C255.545 215.701 256.948 215.871 258.394 216.169C259.797 216.509 261.242 217.019 262.475 217.912C264.984 219.612 266.727 222.631 266.94 225.82C267.067 227.436 266.855 229.051 266.302 230.539C265.749 231.985 264.856 233.303 263.751 234.366C262.688 235.429 261.37 236.236 260.009 236.747C258.649 237.257 257.161 237.427 255.8 237.427C250.358 237.384 245.426 237.384 241.26 237.384C240.239 237.342 239.261 237.384 238.283 237.257C237.348 237.129 236.498 236.832 235.775 236.449C234.287 235.599 233.351 234.451 232.799 233.43C232.289 232.367 232.076 231.475 232.033 230.879C231.991 230.242 231.991 229.944 231.991 229.944Z" fill="#263238"/>
<path d="M551.844 340.7C551.844 340.7 551.844 340.516 551.844 340.147C551.872 339.722 551.915 339.141 551.971 338.404C552.014 337.639 552.099 336.703 552.141 335.598C552.198 334.492 552.241 333.217 552.269 331.771C552.312 330.326 552.269 328.71 552.269 326.967C552.141 325.224 552.141 323.311 551.886 321.27C551.546 317.188 550.866 312.554 549.463 307.579C548.698 305.113 547.89 302.52 546.742 299.969C545.636 297.375 544.276 294.782 542.618 292.231C539.386 287.129 534.795 282.41 529.353 278.37C523.868 274.331 517.363 271.1 510.263 268.974C503.162 266.806 495.467 265.998 487.601 265.956C479.736 265.913 472.04 266.976 464.982 269.229C461.453 270.335 458.095 271.738 454.906 273.396C451.76 275.054 448.868 277.01 446.19 279.093C440.833 283.302 436.326 288.022 432.712 292.911C430.926 295.377 429.481 297.928 428.248 300.437C427.057 302.988 425.952 305.454 425.144 307.92C421.7 317.656 420.595 326.032 420.212 331.771C420.085 334.62 420.085 336.873 420.17 338.404C420.226 339.141 420.255 339.722 420.255 340.147C420.283 340.516 420.297 340.7 420.297 340.7C420.297 340.7 420.269 340.516 420.212 340.147C420.184 339.722 420.141 339.141 420.085 338.404C420 336.873 419.957 334.62 420.042 331.729C420.382 325.989 421.403 317.571 424.847 307.792C425.654 305.326 426.717 302.86 427.908 300.267C429.183 297.758 430.629 295.165 432.415 292.699C436.028 287.767 440.535 283.047 445.935 278.796C448.613 276.67 451.547 274.672 454.693 273.013C457.882 271.355 461.283 269.952 464.855 268.804C471.955 266.551 479.693 265.488 487.601 265.488C495.509 265.573 503.247 266.338 510.39 268.549C517.533 270.717 524.08 273.949 529.565 278.03C532.329 280.071 534.837 282.282 537.091 284.62C539.344 286.959 541.342 289.467 542.958 292.018C544.573 294.612 545.977 297.205 547.039 299.841C548.187 302.435 549.038 305.028 549.761 307.494C551.164 312.469 551.801 317.146 552.141 321.227C552.397 323.268 552.397 325.181 552.482 326.967C552.482 328.71 552.482 330.326 552.482 331.771C552.397 333.217 552.326 334.492 552.269 335.598C552.227 336.703 552.141 337.639 552.056 338.404C552 339.141 551.943 339.722 551.886 340.147C551.858 340.516 551.844 340.7 551.844 340.7Z" fill="white"/>
<path d="M344.915 234.196C344.915 234.196 344.844 234.196 344.703 234.196C344.561 234.224 344.377 234.238 344.15 234.238C343.611 234.238 342.874 234.252 341.939 234.281C339.941 234.323 337.177 234.366 333.776 234.451C326.888 234.578 317.364 234.833 306.863 235.089C296.361 235.386 286.837 235.599 279.95 235.641C276.506 235.684 273.7 235.684 271.787 235.641C270.851 235.641 270.114 235.627 269.576 235.599C269.349 235.599 269.151 235.599 268.98 235.599C268.867 235.599 268.81 235.585 268.81 235.556C268.81 235.556 268.867 235.556 268.98 235.556C269.151 235.556 269.349 235.542 269.576 235.514C270.114 235.514 270.851 235.5 271.787 235.471C273.742 235.429 276.548 235.386 279.95 235.344C286.837 235.216 296.361 234.961 306.863 234.663C317.364 234.366 326.888 234.153 333.776 234.111C337.22 234.111 339.983 234.111 341.939 234.111C342.874 234.139 343.611 234.153 344.15 234.153C344.377 234.153 344.561 234.153 344.703 234.153C344.844 234.182 344.915 234.196 344.915 234.196Z" fill="white"/>
<path d="M333.648 246.993C333.648 247.121 330.289 247.206 326.208 247.206C322.084 247.206 318.725 247.121 318.725 246.993C318.725 246.866 322.084 246.738 326.208 246.738C330.289 246.738 333.648 246.866 333.648 246.993Z" fill="white"/>
<path d="M336.369 201.458C336.412 201.585 327.186 205.454 315.706 210.089C304.269 214.723 294.958 218.38 294.916 218.252C294.873 218.167 304.099 214.298 315.536 209.664C327.016 205.029 336.327 201.373 336.369 201.458Z" fill="white"/>
<path d="M317.619 204.391C317.704 204.476 308.861 208.388 297.977 213.022C287.05 217.699 278.164 221.398 278.121 221.313C278.079 221.185 286.88 217.316 297.807 212.64C308.691 207.963 317.577 204.264 317.619 204.391Z" fill="white"/>
<path d="M436.496 199.885C436.539 199.97 427.27 203.839 415.833 208.473C404.353 213.107 395.042 216.764 395 216.636C394.957 216.551 404.183 212.682 415.663 208.048C427.1 203.414 436.454 199.757 436.496 199.885Z" fill="white"/>
<path d="M417.746 202.776C417.789 202.903 408.988 206.772 398.061 211.449C387.177 216.126 378.291 219.783 378.248 219.698C378.206 219.57 387.007 215.701 397.891 211.024C408.818 206.347 417.704 202.648 417.746 202.776Z" fill="white"/>
<path d="M438.282 234.196C438.282 234.323 419.915 234.536 397.211 234.663C374.507 234.791 356.14 234.791 356.14 234.663C356.14 234.536 374.507 234.323 397.211 234.196C419.872 234.068 438.282 234.068 438.282 234.196Z" fill="white"/>
<path d="M458.647 246.27C458.647 246.398 453.503 246.526 447.125 246.611C440.79 246.653 435.603 246.611 435.603 246.483C435.603 246.355 440.748 246.228 447.125 246.143C453.503 246.1 458.647 246.143 458.647 246.27Z" fill="white"/>
<path d="M106.482 239.978C106.482 240.006 106.312 240.035 105.972 240.063C105.603 240.12 105.135 240.19 104.569 240.276C103.931 240.318 103.166 240.446 102.273 240.573C101.38 240.701 100.359 240.828 99.254 241.083C97.0431 241.466 94.4071 242.019 91.5585 242.784C88.6673 243.592 85.5636 244.612 82.3749 245.845C79.1436 247.121 76.21 248.481 73.5314 249.884C70.8954 251.245 68.5995 252.605 66.6862 253.838C65.7509 254.434 64.9005 255.029 64.1777 255.539C63.4124 256.007 62.7747 256.474 62.2645 256.857C61.7826 257.197 61.4 257.466 61.1166 257.665C60.8331 257.863 60.6772 257.962 60.6489 257.962C60.6489 257.934 60.7764 257.821 61.0315 257.622C61.3433 257.367 61.726 257.055 62.1795 256.687C62.6897 256.304 63.2849 255.837 64.0077 255.326C64.773 254.816 65.5808 254.178 66.5162 253.583C68.3869 252.308 70.7253 250.947 73.3613 249.502C75.9974 248.099 78.9735 246.696 82.2048 245.42C85.3936 244.187 88.5398 243.209 91.4309 242.401C94.3221 241.679 97.0006 241.126 99.2115 240.743C100.317 240.573 101.337 240.446 102.23 240.318C103.123 240.19 103.888 240.148 104.526 240.105C105.121 240.049 105.603 240.006 105.972 239.978C106.312 239.978 106.482 239.978 106.482 239.978Z" fill="white"/>
<path d="M258.351 219.91C258.309 219.953 258.096 219.57 257.501 219.145C256.948 218.677 256.013 218.167 254.695 217.997C253.419 217.827 251.846 218.039 250.188 218.465C248.487 218.89 246.659 219.485 244.831 220.293C241.132 221.908 238.113 223.992 236.115 225.735C234.074 227.436 233.011 228.669 232.969 228.626C232.926 228.583 233.181 228.286 233.692 227.691C234.159 227.138 234.925 226.373 235.903 225.48C237.858 223.694 240.919 221.526 244.661 219.91C246.532 219.102 248.36 218.507 250.061 218.082C251.761 217.657 253.419 217.444 254.737 217.699C256.098 217.912 257.076 218.465 257.629 219.017C257.926 219.272 258.096 219.485 258.181 219.655C258.295 219.825 258.351 219.91 258.351 219.91Z" fill="white"/>
<path d="M532.116 197.461C532.116 197.461 530.84 197.844 528.502 197.844C527.312 197.801 525.866 197.674 524.25 197.291C522.592 196.951 520.807 196.398 518.808 195.633C516.853 194.91 514.769 193.975 512.516 192.997C511.382 192.544 510.206 192.062 508.987 191.551C507.754 191.084 506.478 190.659 505.203 190.191C499.973 188.405 494.106 186.79 487.856 185.472C475.356 182.836 463.834 181.773 455.458 181.432C453.375 181.305 451.504 181.305 449.804 181.262C448.16 181.262 446.743 181.262 445.552 181.262C444.418 181.291 443.525 181.319 442.874 181.347C442.59 181.347 442.349 181.347 442.151 181.347C442.009 181.347 441.938 181.333 441.938 181.305C441.938 181.305 442.009 181.305 442.151 181.305C442.349 181.277 442.59 181.262 442.874 181.262C443.525 181.206 444.418 181.149 445.552 181.092C446.743 181.092 448.174 181.064 449.846 181.007C451.504 181.05 453.375 181.05 455.458 181.135C463.834 181.347 475.441 182.41 487.941 185.046C494.191 186.364 500.101 187.98 505.33 189.808C506.606 190.276 507.882 190.701 509.114 191.211C510.333 191.693 511.51 192.175 512.643 192.657C514.897 193.635 516.98 194.57 518.936 195.335C520.892 196.101 522.677 196.696 524.293 197.079C525.909 197.461 527.312 197.589 528.502 197.674C529.65 197.674 530.543 197.631 531.181 197.546C531.464 197.518 531.691 197.49 531.861 197.461C532.031 197.461 532.116 197.461 532.116 197.461Z" fill="#263238"/>
<path d="M122 228.243L84.6707 218.209L85.6061 202.776L79.101 187.512L73.1062 200.267L61.1165 188.32L67.9617 169.103C69.1946 165.744 71.448 162.853 74.4242 160.854C77.4854 158.856 81.8221 156.39 86.7966 154.647C91.2183 153.116 104.016 157.751 106.609 158.729C110.393 160.217 113.497 164.426 115.368 170.761C117.281 177.181 119.577 180.029 122.978 198.652C124.934 209.196 125.444 222.801 122 228.243Z" fill="#A21515"/>
<g opacity="0.2">
<path d="M113.242 178.329C111.626 188.023 111.329 189.341 109.713 199.034C109.118 202.351 107.46 207.538 105.121 209.961C103.336 211.747 101.635 213.448 99.2114 214.043C96.9155 214.553 93.5142 214.638 91.3459 213.703C89.22 212.725 87.4343 208.601 88.2847 206.432C91.4734 207.113 92.4513 208.176 95.1724 206.432C97.5533 204.944 100.955 201.585 102.23 199.077C107.672 188.533 109.203 188.15 113.242 178.329Z" fill="black"/>
</g>
<path d="M86.2013 197.121C86.1587 197.121 85.5635 196.143 84.5856 194.528C83.5227 192.827 82.2047 190.659 80.7166 188.235C79.2285 185.854 77.868 183.728 76.7626 182.028C75.7422 180.455 75.1469 179.434 75.1895 179.434C75.232 179.392 75.402 179.647 75.7422 180.029C76.0398 180.455 76.5075 181.092 77.0177 181.858C78.1231 183.388 79.5687 185.557 81.0993 188.023C82.6299 190.446 83.9479 192.699 84.8407 194.358C85.3084 195.208 85.6486 195.888 85.9037 196.356C86.1162 196.824 86.2438 197.079 86.2013 197.121Z" fill="#263238"/>
<path d="M112.307 214.468C112.307 214.511 111.966 214.638 111.414 214.808C111.13 214.922 110.776 215.021 110.351 215.106C109.926 215.191 109.458 215.318 108.905 215.403C107.842 215.616 106.567 215.701 105.164 215.743C103.718 215.743 102.145 215.616 100.529 215.361C98.8713 215.021 97.3832 214.596 96.0227 214.085C94.7047 213.533 93.5567 212.98 92.6214 212.427C92.1537 212.172 91.7285 211.874 91.3884 211.662C91.0199 211.407 90.7223 211.18 90.4955 210.982C90.0279 210.599 89.7728 210.386 89.7728 210.386C89.8578 210.301 90.8782 211.109 92.7489 212.172C93.6843 212.682 94.8748 213.192 96.1928 213.703C97.5108 214.17 98.9989 214.596 100.572 214.893C102.188 215.191 103.718 215.318 105.164 215.318C106.567 215.318 107.8 215.233 108.863 215.106C110.989 214.808 112.264 214.383 112.307 214.468Z" fill="#263238"/>
<path d="M108.437 192.019C108.437 192.019 101.38 209.408 95.1723 208.686C84.8407 207.453 66.431 188.533 66.431 188.533L66.4735 188.49L64.6028 185.514L63.7525 183.898C63.1998 182.793 63.0297 181.475 63.4124 180.285L64.7304 175.608C64.7304 175.608 61.8392 175.905 60.4362 176.033C59.7134 176.075 59.6284 175.693 59.7134 175.268C59.7984 174.8 60.1386 174.375 60.6063 174.205L66.2185 171.909C67.5365 171.569 68.982 171.824 70.13 172.589C71.2354 173.269 72.0432 174.375 72.3408 175.65L74.2541 183.813L93.2165 193.805C93.2165 193.805 97.2131 185.812 97.2981 185.472L108.437 192.019Z" fill="#FF9A6C"/>
<path d="M64.5603 175.948C64.5178 175.905 64.6879 175.735 65.028 175.523C65.3256 175.31 65.8358 175.055 66.4311 175.098C67.0688 175.098 67.5365 175.523 67.7066 175.905C67.8766 176.288 67.7916 176.543 67.7491 176.501C67.7066 176.501 67.7491 176.288 67.5365 175.99C67.3664 175.693 66.9413 175.395 66.4311 175.353C65.9209 175.353 65.4532 175.523 65.1131 175.693C64.7729 175.863 64.5603 175.948 64.5603 175.948Z" fill="#C87D55"/>
<path d="M66.9413 178.839C66.8987 178.839 66.8137 178.669 66.6436 178.456C66.4736 178.244 66.176 177.946 65.7508 177.776C65.3681 177.649 64.943 177.649 64.6879 177.691C64.3903 177.734 64.2202 177.776 64.1777 177.734C64.1777 177.734 64.3052 177.563 64.6454 177.478C64.943 177.393 65.4107 177.351 65.8783 177.521C66.3035 177.734 66.6436 178.074 66.8137 178.329C66.9413 178.626 66.9838 178.839 66.9413 178.839Z" fill="#C87D55"/>
<path d="M114.9 177.819L109.713 192.742L96.1076 184.579L101.21 160.259C112.774 159.664 114.9 177.819 114.9 177.819Z" fill="#A21515"/>
<path d="M108.565 160.684C108.565 160.713 108.452 160.784 108.225 160.897C107.97 161.039 107.615 161.223 107.162 161.45C106.269 161.917 104.951 162.555 103.293 163.278C99.9766 164.766 95.2573 166.637 89.7726 167.572C84.288 168.465 79.1435 168.04 75.6571 167.062C73.8714 166.594 72.5109 166.042 71.5755 165.616C71.1078 165.404 70.7677 165.191 70.5551 165.106C70.3 164.964 70.1866 164.894 70.215 164.894C70.215 164.851 70.7252 165.064 71.6605 165.446C72.5959 165.829 73.9564 166.339 75.7421 166.764C79.2285 167.657 84.288 168.04 89.6876 167.104C95.1297 166.212 99.8491 164.383 103.165 163.023C104.824 162.3 106.184 161.705 107.119 161.28C108.012 160.897 108.522 160.642 108.565 160.684Z" fill="#EBEBEB"/>
<path d="M112.136 163.363C112.136 163.391 112.009 163.49 111.754 163.661C111.47 163.831 111.102 164.072 110.648 164.383C110.138 164.681 109.543 165.064 108.778 165.446C108.055 165.829 107.247 166.297 106.269 166.722C105.816 166.92 105.334 167.147 104.824 167.402C104.271 167.615 103.718 167.827 103.165 168.04C102.018 168.507 100.785 168.89 99.4665 169.315C96.8305 170.123 93.8543 170.761 90.6656 171.143C87.5193 171.526 84.4581 171.569 81.7371 171.441C80.334 171.314 79.0585 171.228 77.8255 171.058C77.2303 170.973 76.6351 170.888 76.0823 170.803C75.5155 170.69 74.9769 170.577 74.4667 170.463C73.4463 170.293 72.5535 170.038 71.7456 169.825C70.9378 169.613 70.2576 169.4 69.7048 169.23C69.1946 169.032 68.7695 168.876 68.4293 168.763C68.1459 168.678 68.0042 168.621 68.0042 168.592C68.0042 168.564 68.1601 168.592 68.4719 168.677C68.812 168.791 69.2372 168.918 69.7474 169.06C70.3001 169.23 70.9803 169.4 71.7882 169.57C72.596 169.74 73.4888 169.996 74.5517 170.166C75.0619 170.251 75.5863 170.35 76.1249 170.463C76.6776 170.548 77.2728 170.591 77.868 170.676C79.101 170.846 80.3765 170.931 81.7371 171.016C84.5006 171.143 87.4768 171.101 90.623 170.718C93.7693 170.336 96.7029 169.698 99.339 168.933C100.657 168.55 101.89 168.167 103.038 167.7C103.591 167.487 104.143 167.317 104.654 167.062C105.192 166.835 105.688 166.623 106.142 166.424C107.12 166.041 107.927 165.574 108.693 165.234C109.415 164.851 110.053 164.511 110.521 164.213C111.003 163.958 111.4 163.746 111.711 163.575C111.995 163.434 112.136 163.363 112.136 163.363Z" fill="#EBEBEB"/>
<path d="M109.713 192.742C109.67 192.742 109.288 192.572 108.607 192.189C107.842 191.764 106.836 191.197 105.589 190.489C102.995 189 99.4664 186.96 95.3848 184.621L95.2573 184.536V184.366C95.6399 182.58 96.0226 180.625 96.4477 178.626C97.043 175.565 97.6382 172.717 98.1909 170.081C98.446 168.763 98.7011 167.53 98.9562 166.339C99.2113 165.191 99.5514 164.086 100.019 163.193C100.954 161.322 102.485 160.302 103.548 159.962C104.101 159.792 104.526 159.749 104.866 159.749C105.164 159.749 105.291 159.792 105.291 159.792C105.291 159.877 104.653 159.749 103.591 160.132C102.57 160.514 101.167 161.535 100.317 163.32C99.8491 164.213 99.5514 165.276 99.2963 166.424C99.0696 167.586 98.8287 168.833 98.5736 170.166C98.0634 172.802 97.4681 175.65 96.8729 178.669C96.4477 180.71 96.0651 182.666 95.6824 184.451L95.5974 184.239C99.6365 186.662 103.165 188.745 105.716 190.276C106.935 191.013 107.913 191.608 108.65 192.062C109.33 192.487 109.713 192.699 109.713 192.742Z" fill="#263238"/>
<path d="M113.837 177.096C113.922 177.096 113.922 177.946 113.795 179.349C113.667 180.752 113.369 182.665 112.817 184.749C112.264 186.79 111.584 188.618 111.031 189.893C110.436 191.169 110.011 191.934 109.968 191.892C109.883 191.892 110.223 191.084 110.733 189.766C111.201 188.49 111.839 186.662 112.392 184.621C112.944 182.58 113.284 180.667 113.497 179.307C113.71 177.946 113.795 177.096 113.837 177.096Z" fill="#263238"/>
<path d="M52.6557 312.852L51.5928 333.089L26.4229 331.899C26.678 329.476 39.9432 325.266 39.9432 325.266L40.0708 312.299L52.6557 312.852Z" fill="#455A64"/>
<path d="M47.7662 324.544C48.2339 324.714 48.5741 325.266 48.404 325.777C48.2764 326.244 47.7237 326.584 47.2135 326.414C46.7459 326.287 46.3632 325.607 46.5333 325.139C46.7459 324.671 47.4261 324.331 47.8513 324.586" fill="#E0E0E0"/>
<path d="M26.4229 331.899C26.3379 331.091 27.4858 330.666 27.4858 330.666L51.6353 331.049L51.5928 333.089L26.4229 331.899Z" fill="#E0E0E0"/>
<path d="M40.9636 325.437C41.6864 325.904 41.8565 326.67 41.7289 326.67C41.6014 326.712 41.3463 326.159 40.7085 325.777C40.1558 325.352 39.518 325.267 39.518 325.139C39.518 325.011 40.2833 324.926 40.9636 325.437Z" fill="#263238"/>
<path d="M38.0725 326.754C38.5827 327.392 38.4551 328.115 38.3276 328.073C38.2 328.073 38.115 327.52 37.7323 327.01C37.3497 326.457 36.797 326.202 36.8395 326.117C36.8395 325.989 37.5623 326.074 38.0725 326.754Z" fill="#263238"/>
<path d="M34.8412 328.072C34.5861 327.52 34.246 327.137 34.331 327.052C34.3735 326.967 34.9262 327.222 35.2239 327.945C35.5215 328.625 35.3089 329.22 35.1813 329.178C35.0538 329.178 35.0538 328.668 34.8412 328.072Z" fill="#263238"/>
<path d="M41.2612 321.822C42.069 321.908 42.5792 322.375 42.4942 322.46C42.4091 322.545 41.8989 322.29 41.2187 322.248C40.4959 322.163 39.9432 322.29 39.9006 322.163C39.8581 322.078 40.4534 321.737 41.2612 321.822Z" fill="#263238"/>
<g opacity="0.3">
<path d="M52.5281 315.573L52.4005 317.656L40.0282 317.188L40.0707 314.892L52.5281 315.573Z" fill="black"/>
</g>
<path d="M41.1761 319.314C41.5588 319.229 41.9839 319.102 42.4091 318.932C42.6359 318.818 42.8626 318.691 43.0894 318.549C43.2169 318.506 43.3445 318.421 43.387 318.379C43.472 318.294 43.472 318.251 43.4295 318.209C43.387 318.081 43.1319 318.081 42.8768 318.166C42.6217 318.195 42.3808 318.251 42.154 318.336C41.6863 318.506 41.3037 318.719 40.9635 318.932C40.3683 319.314 40.0707 319.697 40.0282 319.654C39.9857 319.654 40.1982 319.187 40.7935 318.676C41.0911 318.421 41.5163 318.166 41.9839 317.954C42.239 317.869 42.5083 317.798 42.7918 317.741C42.9193 317.699 43.0894 317.656 43.2594 317.699C43.472 317.699 43.6846 317.784 43.8122 317.996C43.9397 318.209 43.8547 318.506 43.7271 318.634C43.5571 318.804 43.4295 318.846 43.302 318.932C43.0469 319.073 42.8059 319.187 42.5792 319.272C42.069 319.484 41.6438 319.569 41.2186 319.612C40.4533 319.697 39.9857 319.612 39.9857 319.569C39.9857 319.484 40.4533 319.484 41.1761 319.314Z" fill="#263238"/>
<path d="M40.1983 318.549C40.1983 318.166 40.1558 317.741 40.0282 317.273C39.9715 317.047 39.8723 316.806 39.7306 316.551C39.6456 316.338 39.433 316.125 39.348 316.125C39.2204 316.083 39.1354 316.295 39.0503 316.593C38.9936 316.82 38.9795 317.061 39.0078 317.316C39.0503 317.784 39.1779 318.209 39.348 318.506C39.6881 319.144 40.1133 319.399 40.0707 319.484C40.0707 319.527 39.5605 319.357 39.0928 318.676C38.8803 318.336 38.6677 317.869 38.6252 317.316C38.5968 317.061 38.611 316.777 38.6677 316.465C38.7102 316.338 38.7102 316.21 38.7952 316.04C38.8803 315.87 39.0929 315.7 39.348 315.7C39.8156 315.785 39.9857 316.125 40.1132 316.38C40.255 316.636 40.3542 316.891 40.4109 317.146C40.5384 317.656 40.5384 318.166 40.4959 318.549C40.4534 319.357 40.1558 319.782 40.1132 319.739C40.0707 319.739 40.1983 319.272 40.1983 318.549Z" fill="#263238"/>
<path d="M79.7813 239.85L47.5112 224.162L55.4618 256.134L38.9228 263.702C38.9228 263.702 28.0386 217.444 27.5284 213.49C26.508 205.624 32.2902 200.693 39.9007 201.16C52.0605 201.84 91.3459 218.337 91.3459 218.337L79.7813 239.85Z" fill="#263238"/>
<path d="M45.598 219.783C47.001 222.036 47.6813 224.077 47.5537 224.162C47.3837 224.204 46.4908 222.291 45.0878 220.08C43.7272 217.869 42.4517 216.169 42.5793 216.084C42.6643 215.956 44.1949 217.487 45.598 219.783Z" fill="#455A64"/>
<path d="M43.8973 220.548C46.2783 222.291 47.9364 224.034 47.8089 224.119C47.6813 224.247 45.8956 222.716 43.5572 221.016C41.2613 219.315 39.263 218.039 39.348 217.912C39.4331 217.784 41.5589 218.805 43.8973 220.548Z" fill="#455A64"/>
<path d="M122 228.243C122 228.243 117.068 234.621 112.349 236.364C106.439 238.532 62.6471 259.195 62.6471 259.195C62.6471 259.195 54.6965 318.209 55.3342 315.743L37.0096 315.317L39.0078 260.939C39.2629 254.008 44.8326 246.015 50.8275 242.444L91.3458 218.337L122 228.243Z" fill="#263238"/>
<path d="M38.6252 270.165C38.6252 269.598 38.6252 268.875 38.6252 267.996C38.6677 266.168 38.7102 263.447 39.1779 260.131C39.6456 256.857 40.6235 252.86 43.0895 249.119C44.3224 247.291 45.9806 245.59 47.8938 244.102C49.8071 242.656 51.9754 241.381 54.1863 240.148C62.9447 235.088 70.5977 229.986 76.295 226.543C79.1436 224.799 81.4395 223.439 83.0551 222.546C83.8629 222.078 84.5007 221.738 84.9684 221.483C85.3935 221.256 85.6061 221.157 85.6061 221.186C85.6345 221.186 85.4361 221.327 85.0109 221.611C84.529 221.894 83.9196 222.263 83.1827 222.716C81.6096 223.694 79.3137 225.097 76.5076 226.883C70.8954 230.454 63.2849 235.599 54.4414 240.616C52.2731 241.891 50.1472 243.124 48.234 244.57C46.3632 246.015 44.7476 247.631 43.5146 249.417C41.0912 253.073 40.1133 256.985 39.5606 260.216C39.0504 263.49 38.9653 266.168 38.8378 268.039C38.8095 268.918 38.7811 269.626 38.7528 270.165C38.7244 270.647 38.6961 270.887 38.6677 270.887C38.6394 270.887 38.6252 270.647 38.6252 270.165Z" fill="#455A64"/>
<path d="M104.398 233.218C103.633 232.282 102.783 230.794 102.443 229.009C102.06 227.181 102.273 225.522 102.613 224.374C102.953 223.226 103.421 222.631 103.463 222.631C103.548 222.674 103.25 223.354 102.995 224.459C102.783 225.565 102.655 227.18 102.995 228.881C103.336 230.582 104.058 232.027 104.739 232.963C105.376 233.898 105.929 234.408 105.844 234.451C105.802 234.536 105.164 234.111 104.398 233.218Z" fill="#455A64"/>
<path d="M43.7272 314.977C43.7555 314.751 43.7839 314.453 43.8122 314.084C43.8689 313.262 43.9539 312.115 44.0673 310.641C44.3224 307.622 44.6625 303.328 45.1302 298.013C45.3428 295.335 45.5979 292.401 45.8955 289.255C46.1506 286.109 46.4482 282.75 46.7033 279.221C46.9584 275.692 47.2561 271.95 47.8938 268.124C48.5741 264.34 49.552 260.386 51.2951 256.644C53.0383 252.903 55.4618 249.629 58.0553 246.738C60.7338 243.932 63.5825 241.509 66.4736 239.383C72.2133 235.216 77.8681 232.155 82.5449 229.519C87.2217 226.883 90.9207 224.672 93.4291 223.014C94.7046 222.206 95.64 221.526 96.2778 221.101C96.5896 220.874 96.8446 220.704 97.0431 220.59C97.2131 220.477 97.2982 220.42 97.2982 220.42C97.2982 220.42 97.2273 220.491 97.0856 220.633C96.8872 220.775 96.6462 220.959 96.3628 221.186C95.7251 221.653 94.7897 222.376 93.5567 223.184C91.0907 224.927 87.3918 227.18 82.7575 229.859C78.1232 232.58 72.4684 235.641 66.7712 239.808C63.9651 241.934 61.1165 244.315 58.4805 247.121C55.9295 249.969 53.506 253.201 51.8479 256.9C50.1047 260.599 49.1268 264.468 48.489 268.252C47.8088 272.036 47.5112 275.734 47.2135 279.263C46.9584 282.792 46.6608 286.151 46.3632 289.297C46.0656 292.444 45.768 295.377 45.5129 298.013C45.0027 303.328 44.5775 307.664 44.2799 310.683C44.1382 312.129 44.0106 313.277 43.8972 314.127C43.8689 314.467 43.8406 314.765 43.8122 315.02C43.7839 315.218 43.7697 315.317 43.7697 315.317C43.7413 315.317 43.7272 315.204 43.7272 314.977Z" fill="#455A64"/>
<path d="M74.0416 135.77C72.3834 136.195 70.6828 136.662 68.9821 136.492C67.2389 136.28 65.5383 135.259 64.9855 133.644C64.6454 132.538 64.9005 131.263 64.3903 130.242C64.0927 129.605 63.54 129.094 63.1998 128.457C62.4345 127.011 63.0298 125.098 64.3053 124.077C65.5808 123.057 67.3665 122.802 68.9821 123.142C69.4073 121.144 71.6181 119.698 73.6589 120.081C74.5943 120.293 75.4872 120.804 76.4225 120.846C77.2303 120.846 77.9531 120.549 78.7184 120.336C81.9922 119.528 85.7762 121.526 86.8816 124.758" fill="#263238"/>
<path d="M79.0161 158.388C78.8035 156.73 78.6759 155.582 78.6759 155.582C78.6759 155.582 73.1913 155.54 70.9804 148.737C69.875 145.378 69.1522 139.681 68.6845 134.962C68.3019 130.753 71.4906 127.054 75.6998 126.841L90.283 126.076L90.5806 128.329L94.4071 156.305C95.0023 160.599 91.9837 164.511 87.732 165.063C83.4803 165.616 79.5688 162.64 79.0161 158.388Z" fill="#FF9A6C"/>
<path d="M71.5332 138.065C72.0434 137.98 72.5111 138.32 72.5536 138.831C72.5961 139.298 72.256 139.724 71.7458 139.766C71.2781 139.809 70.8104 139.468 70.7679 139.001C70.6829 138.533 71.0655 138.108 71.5332 138.065Z" fill="#263238"/>
<path d="M70.6403 137.215C70.8954 136.917 71.3631 136.62 71.9583 136.535C72.5536 136.407 73.1063 136.577 73.4464 136.747C73.7865 136.917 73.9566 137.087 73.9141 137.173C73.8291 137.3 73.0212 136.917 72.0859 137.087C71.108 137.215 70.5128 137.853 70.3852 137.725C70.3427 137.683 70.3852 137.47 70.6403 137.215Z" fill="#263238"/>
<path d="M80.6742 136.492C81.1844 136.45 81.6096 136.79 81.6946 137.258C81.7371 137.725 81.397 138.15 80.8868 138.193C80.3766 138.278 79.9514 137.938 79.8664 137.47C79.8239 136.96 80.164 136.535 80.6742 136.492Z" fill="#263238"/>
<path d="M80.1215 135.855C80.3766 135.599 80.8443 135.302 81.4396 135.217C82.0348 135.089 82.5875 135.259 82.9276 135.429C83.2678 135.599 83.4379 135.769 83.3953 135.855C83.3103 135.982 82.5025 135.599 81.5671 135.769C80.5892 135.897 79.994 136.535 79.8664 136.407C79.8239 136.365 79.8664 136.152 80.1215 135.855Z" fill="#263238"/>
<path d="M75.9124 144.358C75.7848 144.358 75.6573 144.4 75.4872 144.358C75.3596 144.358 75.1471 144.23 75.062 144.06C74.8494 143.72 74.977 143.38 75.0195 143.082C75.1329 142.459 75.2604 141.793 75.4022 141.084C75.9974 138.278 76.5501 135.982 76.6777 136.025C76.8052 136.025 76.4226 138.363 75.8273 141.169C75.6856 141.849 75.5439 142.515 75.4022 143.167C75.3171 143.465 75.2746 143.72 75.3596 143.89C75.4022 144.06 75.6573 144.06 75.9124 144.06C76.8902 144.018 77.4855 144.06 77.528 144.103C77.528 144.145 76.8902 144.23 75.9124 144.358Z" fill="#263238"/>
<path d="M78.676 155.582C78.676 155.582 83.3954 155.115 87.6045 151.586C87.6045 151.586 86.0739 156.73 79.0162 157.198L78.676 155.582Z" fill="#C87D55"/>
<path d="M80.7168 144.996C80.7168 145.421 80.5892 146.058 80.1215 146.611C79.6538 147.121 79.0161 147.377 78.5484 147.462C78.0807 147.504 77.7831 147.419 77.7831 147.334C77.7831 147.206 78.8885 147.121 79.6964 146.271C80.4617 145.378 80.2916 144.315 80.4617 144.315C80.5042 144.315 80.6742 144.528 80.7168 144.996Z" fill="#263238"/>
<path d="M79.5263 132.113C79.909 131.858 80.5042 131.645 81.1845 131.645C81.8648 131.603 82.5025 131.73 82.9277 131.943C83.3103 132.156 83.5229 132.368 83.4804 132.496C83.3528 132.751 82.375 132.538 81.227 132.623C80.0791 132.666 79.1437 132.921 79.0161 132.708C78.9736 132.581 79.1437 132.326 79.5263 132.113Z" fill="#263238"/>
<path d="M70.5128 134.281C70.7679 134.026 71.1931 133.771 71.7458 133.644C72.2985 133.559 72.8087 133.644 73.1063 133.814C73.4464 133.941 73.574 134.154 73.5315 134.281C73.4039 134.537 72.7237 134.452 71.9158 134.622C71.1505 134.749 70.5128 135.089 70.3002 134.919C70.2152 134.792 70.2577 134.579 70.5128 134.281Z" fill="#263238"/>
<path d="M67.324 128.669L71.8733 126.799L77.8681 125.14L83.4803 123.567L87.9446 123.78C89.5177 123.822 90.8357 124.97 91.1333 126.501C91.8561 130.327 92.834 137.088 91.1333 137.47C88.7524 137.98 88.1572 131.858 88.1572 131.858C84.9684 131.348 84.4157 128.159 83.5229 127.649C82.6725 127.096 79.1436 128.329 76.2525 130.285C71.8308 133.219 67.9618 131.943 67.9618 131.943L67.324 128.669Z" fill="#263238"/>
<path d="M90.6232 135.004C90.7082 134.919 94.4072 132.963 95.0874 137.045C95.7677 141.084 91.5586 140.957 91.5586 140.829C91.516 140.702 90.6232 135.004 90.6232 135.004Z" fill="#FF9A6C"/>
<path d="M92.5365 139.086C92.5365 139.086 92.6215 139.128 92.7491 139.171C92.8766 139.171 93.0467 139.171 93.2593 139.086C93.6419 138.831 93.897 138.108 93.812 137.385C93.7695 137.003 93.5994 136.662 93.4293 136.407C93.2593 136.11 93.0467 135.94 92.7916 135.94C92.579 135.94 92.4515 136.067 92.4089 136.195C92.4089 136.322 92.4515 136.407 92.4089 136.407C92.4089 136.407 92.3239 136.365 92.3239 136.195C92.3239 136.11 92.3664 135.982 92.4515 135.897C92.5365 135.812 92.664 135.727 92.7916 135.727C93.1317 135.685 93.4719 135.94 93.6419 136.237C93.8545 136.535 94.0246 136.918 94.0671 137.343C94.1946 138.151 93.897 139.001 93.3443 139.256C93.0892 139.383 92.8341 139.341 92.7066 139.256C92.5365 139.171 92.494 139.086 92.5365 139.086Z" fill="#C87D55"/>
<path d="M69.9175 121.654C69.96 121.611 70.0451 121.867 70.3427 122.207C70.6403 122.504 71.1505 122.93 71.8733 123.185C72.5961 123.44 73.5739 123.525 74.5943 123.312C75.6147 123.1 76.6777 122.674 77.8681 122.249C79.0161 121.867 80.2065 121.569 81.312 121.654C82.4174 121.697 83.3953 122.207 83.948 122.844C84.5432 123.44 84.7558 124.12 84.7558 124.588C84.7983 125.055 84.6708 125.31 84.6708 125.31C84.6283 125.31 84.6708 125.055 84.5858 124.63C84.5432 124.205 84.2881 123.567 83.7354 123.057C83.1827 122.504 82.3324 122.079 81.312 122.037C80.2916 121.994 79.1436 122.292 77.9957 122.674C76.8477 123.057 75.7423 123.525 74.6369 123.695C73.5739 123.907 72.5535 123.78 71.7882 123.482C70.9804 123.142 70.4702 122.674 70.2151 122.292C69.96 121.909 69.875 121.654 69.9175 121.654Z" fill="#455A64"/>
<path d="M83.6079 125.523C83.5654 125.566 83.3953 125.31 82.9701 125.013C82.5875 124.715 81.8647 124.46 80.9293 124.418C80.0365 124.375 78.9736 124.63 77.8681 125.183C76.7202 125.693 75.5722 126.458 74.1692 126.884C71.3206 127.819 68.5145 127.054 66.8988 126.118C66.0485 125.608 65.4533 125.14 65.1131 124.715C64.7305 124.333 64.5604 124.12 64.6029 124.077C64.6455 124.035 65.4108 124.97 67.0264 125.821C68.642 126.713 71.3206 127.351 74.0416 126.501C75.3596 126.033 76.5076 125.31 77.6981 124.8C78.8035 124.29 79.994 124.035 80.9718 124.12C81.9497 124.162 82.6725 124.545 83.0977 124.885C83.5228 125.225 83.6504 125.523 83.6079 125.523Z" fill="#455A64"/>
<path d="M69.5774 202.478C61.4992 205.327 56.6098 198.779 56.6098 198.779C51.6353 193.55 44.7477 179.264 44.7477 179.264L51.2952 177.819L71.0229 194.613C71.0229 194.613 77.6981 199.672 69.5774 202.478Z" fill="#FF9A6C"/>
<path d="M52.7833 161.152L60.9465 177.223C61.4142 177.946 60.989 179.222 59.7985 179.392L49.5945 179.434C48.8718 179.434 48.1915 179.009 47.8939 178.371L39.4331 161.96C39.0079 160.727 40.1133 159.281 41.3888 159.281H49.7646C51.0826 159.281 52.2306 160.004 52.7833 161.152Z" fill="#455A64"/>
<path d="M52.2306 162.13L60.3512 178.201C60.6489 178.754 60.2237 179.434 59.6285 179.434H49.5095C48.7867 179.434 48.149 179.009 47.8088 178.371L39.5606 162.3C39.0929 161.365 39.7732 160.259 40.8361 160.259H49.2119C50.4874 160.259 51.6778 160.982 52.2306 162.13Z" fill="#263238"/>
<path d="M45.1303 170.293L45.8531 173.269L46.6609 171.399C46.6609 171.399 51.7204 169.018 52.3157 169.145C52.9534 169.273 53.2935 170.251 53.3786 170.676C53.4636 171.058 50.3599 173.524 50.3599 173.524C50.3599 173.524 52.9959 172.546 53.3786 172.632C53.7612 172.674 54.1439 173.992 54.0588 174.375C54.0163 174.757 51.5078 175.523 51.5078 175.523L51.1677 177.904L53.8037 180.582L44.7477 179.264L42.3242 173.142L43.3872 169.018L48.4892 166.977C49.5946 169.018 45.1303 170.293 45.1303 170.293Z" fill="#FF9A6C"/>
<path d="M49.1694 176.628C49.1269 176.628 49.0419 176.458 48.9569 176.118C48.9143 175.82 48.9569 175.31 49.1269 174.842C49.297 174.375 49.5946 173.992 49.8497 173.779C50.1048 173.524 50.3174 173.482 50.3174 173.482C50.3599 173.567 49.6796 174.035 49.382 174.927C49.0419 175.82 49.212 176.628 49.1694 176.628Z" fill="#C87D55"/>
<path d="M46.7035 175.735C46.7035 175.735 46.8736 175.268 46.9161 174.417C46.9586 173.992 47.0011 173.482 47.1712 172.929C47.2987 172.674 47.4263 172.377 47.6389 172.121C47.894 171.909 48.1916 171.739 48.4892 171.611C49.7222 171.186 50.8276 170.803 51.5929 170.548C52.4007 170.293 52.9109 170.166 52.9109 170.166C52.9534 170.208 52.4432 170.421 51.6779 170.718C50.8701 171.016 49.7647 171.441 48.5742 171.866C48.2766 171.951 48.0215 172.121 47.8514 172.334C47.6389 172.504 47.5113 172.759 47.4263 173.014C47.2137 173.524 47.1712 174.035 47.1287 174.417C47.0011 175.268 46.746 175.778 46.7035 175.735Z" fill="#C87D55"/>
<path d="M45.5556 174.842C45.4705 174.8 45.5131 174.375 45.5981 173.822C45.6831 173.269 45.8107 172.844 45.8957 172.844C45.9382 172.887 45.9382 173.312 45.8532 173.865C45.7681 174.417 45.6406 174.842 45.5556 174.842Z" fill="#C87D55"/>
<path d="M46.4908 162.3C47.0861 162.3 47.5538 162.768 47.5538 163.363C47.5538 163.958 47.0861 164.426 46.4908 164.426C45.8956 164.426 45.4279 163.958 45.4279 163.363C45.4279 162.768 45.8956 162.3 46.4908 162.3Z" fill="#FAFAFA"/>
<path d="M16.0063 278.059C18.6849 278.782 20.8957 280.866 22.2138 283.332C23.4893 285.755 23.9994 288.604 24.0845 291.367C24.2545 296.767 22.0437 302.549 19.4077 307.226C14.3907 303.995 12.3924 297.362 11.5421 293.918C10.2666 288.519 11.2445 277.932 16.0063 278.059Z" fill="#9AED66"/>
<path d="M25.8702 315.219C24.7223 312.328 25.4876 308.884 27.4859 306.503C29.4842 304.122 32.5454 302.762 35.6491 302.549C37.0946 302.464 38.7103 302.634 39.6882 303.697C40.581 304.675 40.7086 306.206 40.2834 307.481C39.8582 308.757 38.8803 309.777 37.8599 310.67C34.3736 313.646 30.4195 315.899 25.8702 315.219Z" fill="#9AED66"/>
<path d="M22.5115 332.268C22.469 332.268 22.469 331.886 22.5115 331.163C22.5398 330.369 22.5823 329.363 22.639 328.144C22.7666 325.636 22.8941 322.022 24.2972 318.323C25.6577 314.624 27.9536 311.733 29.9944 310.16C31.0148 309.394 31.9077 308.842 32.5454 308.544C32.8855 308.416 33.1406 308.331 33.3107 308.246C33.5091 308.19 33.6083 308.161 33.6083 308.161C33.6508 308.246 32.1202 308.757 30.1645 310.415C28.2087 311.988 25.9978 314.836 24.6373 318.45C23.2768 322.064 23.1067 325.636 22.8941 328.187C22.8091 329.462 22.7241 330.483 22.6815 331.205C22.5965 331.886 22.554 332.268 22.5115 332.268Z" fill="#263238"/>
<path d="M15.9638 286.18C15.9922 286.18 16.0347 286.336 16.0914 286.648C16.1764 287.016 16.2756 287.47 16.389 288.008C16.6016 289.199 16.9417 290.9 17.3244 292.983C18.0472 297.235 19.025 303.059 19.9179 309.564C20.8533 316.027 21.5335 321.937 22.0012 326.188C22.2138 328.314 22.3839 330.057 22.4689 331.248C22.5256 331.815 22.5681 332.268 22.5964 332.608C22.5964 332.949 22.5964 333.119 22.5964 333.119C22.5681 333.119 22.5397 332.949 22.5114 332.608C22.4547 332.268 22.398 331.815 22.3413 331.248C22.1713 330.015 21.9587 328.314 21.7036 326.231C21.1934 321.979 20.4706 316.069 19.5352 309.607C18.6424 303.144 17.707 297.277 17.0268 293.068C16.6866 290.985 16.4315 289.284 16.2189 288.051C16.1339 287.484 16.063 287.031 16.0064 286.69C15.978 286.35 15.9638 286.18 15.9638 286.18Z" fill="#263238"/>
<path d="M18.5574 320.023C11.7122 321.086 4.35681 317.557 0.912956 311.478C0.10514 310.032 -0.490091 308.076 0.572825 306.801C1.63574 305.525 3.67654 305.695 5.24966 306.205C11.4996 308.161 16.6866 313.306 18.5999 319.556" fill="#9AED66"/>
<path d="M6.69524 311.095C6.73775 311.095 7.07788 311.18 7.71563 311.393C8.05577 311.478 8.43842 311.605 8.86359 311.818C9.28875 311.988 9.84147 312.158 10.3517 312.455C10.9044 312.711 11.4996 313.008 12.0949 313.391C12.6901 313.731 13.3278 314.199 13.9656 314.666C15.1986 315.644 16.5166 316.835 17.707 318.238C18.855 319.683 19.7478 321.214 20.4706 322.659C20.7682 323.382 21.0659 324.063 21.2784 324.743C21.5335 325.423 21.7036 326.061 21.8312 326.614C22.0012 327.209 22.0437 327.761 22.1288 328.229C22.2563 328.697 22.2563 329.122 22.2988 329.462C22.3414 330.1 22.3414 330.483 22.3414 330.483C22.2138 330.483 22.1713 328.994 21.5761 326.699C21.406 326.146 21.2359 325.508 20.9808 324.87C20.7683 324.19 20.4706 323.51 20.1305 322.787C19.4077 321.384 18.5149 319.896 17.4094 318.493C16.219 317.09 14.986 315.942 13.753 314.964C13.1153 314.496 12.52 314.029 11.9248 313.688C11.3296 313.263 10.7343 313.008 10.2241 312.711C8.09828 311.605 6.69524 311.18 6.69524 311.095Z" fill="#263238"/>
</svg>
