<svg width="30" height="26" viewBox="0 0 30 26" fill="none" xmlns="http://www.w3.org/2000/svg">
<path d="M13.8549 15.7143C13.8549 13.8214 12.3192 12.2857 10.4263 12.2857H6.42634C5.47991 12.2857 4.71205 11.5179 4.71205 10.5714V10C4.71205 7.48214 6.76563 5.42857 9.28348 5.42857H10.4263C11.0513 5.42857 11.5692 4.91071 11.5692 4.28571V2C11.5692 1.375 11.0513 0.857141 10.4263 0.857141H9.28348C4.24777 0.857141 0.140625 4.96428 0.140625 10V22.5714C0.140625 24.4643 1.67634 26 3.5692 26H10.4263C12.3192 26 13.8549 24.4643 13.8549 22.5714V15.7143ZM29.8549 15.7143C29.8549 13.8214 28.3192 12.2857 26.4263 12.2857H22.4263C21.4799 12.2857 20.7121 11.5179 20.7121 10.5714V10C20.7121 7.48214 22.7656 5.42857 25.2835 5.42857H26.4263C27.0513 5.42857 27.5692 4.91071 27.5692 4.28571V2C27.5692 1.375 27.0513 0.857141 26.4263 0.857141H25.2835C20.2478 0.857141 16.1406 4.96428 16.1406 10V22.5714C16.1406 24.4643 17.6763 26 19.5692 26H26.4263C28.3192 26 29.8549 24.4643 29.8549 22.5714V15.7143Z" fill="#EBEAED"/>
</svg>
