<svg width="430" height="24" viewBox="0 0 430 24" fill="none" xmlns="http://www.w3.org/2000/svg">
<path d="M0 10C0 4.47715 4.47715 0 10 0H420C425.523 0 430 4.47715 430 10V24H0V10Z" fill="#EBEAED"/>
<path fill-rule="evenodd" clip-rule="evenodd" d="M13 16C14.6569 16 16 14.6569 16 13C16 11.3431 14.6569 10 13 10C11.3431 10 10 11.3431 10 13C10 14.6569 11.3431 16 13 16ZM23 16C24.6569 16 26 14.6569 26 13C26 11.3431 24.6569 10 23 10C21.3431 10 20 11.3431 20 13C20 14.6569 21.3431 16 23 16ZM36 13C36 14.6569 34.6569 16 33 16C31.3431 16 30 14.6569 30 13C30 11.3431 31.3431 10 33 10C34.6569 10 36 11.3431 36 13Z" fill="#151439" fill-opacity="0.4"/>
</svg>
